<svg width="20" height="17" viewBox="0 0 20 17" fill="none" xmlns="http://www.w3.org/2000/svg">
<path d="M20 2.17205C19.2511 2.50403 18.4565 2.72178 17.643 2.81805C18.5005 2.30585 19.1422 1.49891 19.448 0.548051C18.6424 1.02611 17.7611 1.36296 16.842 1.54405C16.4582 1.13432 15.9944 0.807844 15.4791 0.5849C14.9639 0.361956 14.4084 0.2473 13.847 0.248051C11.197 0.248051 9.251 2.72005 9.849 5.28505C8.21772 5.20366 6.62178 4.78011 5.16482 4.04189C3.70785 3.30368 2.42243 2.2673 1.392 1.00005C0.867744 1.90352 0.707256 2.97275 0.943166 3.99032C1.17908 5.0079 1.79368 5.89743 2.662 6.47805C2.01062 6.45767 1.37356 6.28178 0.804 5.96505C0.759 7.86505 2.122 9.64405 4.095 10.0401C3.49071 10.2041 2.85694 10.2281 2.242 10.1101C2.50402 10.9253 3.01438 11.6383 3.70168 12.1492C4.38897 12.66 5.21879 12.9432 6.075 12.9591C4.35502 14.3078 2.17011 14.9188 0 14.6581C1.87628 15.8634 4.05989 16.5032 6.29 16.501C13.908 16.501 18.213 10.0671 17.953 4.29605C18.7559 3.71508 19.4491 2.99587 20 2.17205Z" fill="#023E8A"/>
</svg>
